<?xml version="1.0" encoding="UTF-8"?>
<svg id="Layer_1" data-name="Layer 1" xmlns="http://www.w3.org/2000/svg" viewBox="0 0 24 24">
  <defs>
    <style>
      .cls-1 {
        fill: #8c1af6;
      }
    </style>
  </defs>
  <path class="cls-1" d="M12,9c.28,0,.52-.1.71-.29.19-.19.29-.43.29-.71s-.1-.52-.29-.71c-.19-.19-.43-.29-.71-.29s-.52.1-.71.29-.29.43-.29.71.1.52.29.71.43.29.71.29ZM12,15c-.65,0-1.24-.18-1.76-.54s-.9-.83-1.14-1.41c-.08,0-.16,0-.23.01s-.14.01-.23.01c-.87,0-1.61-.31-2.23-.93-.62-.62-.93-1.36-.93-2.23,0-.35.06-.69.18-1.01s.29-.63.53-.91c-.22-.28-.38-.59-.5-.91s-.18-.66-.18-1.01c0-.87.3-1.61.91-2.23.61-.62,1.35-.93,2.21-.93.08,0,.16,0,.23.01s.14.01.23.01c.23-.58.61-1.05,1.14-1.41s1.11-.54,1.76-.54,1.24.18,1.76.54.9.83,1.14,1.41c.08,0,.16,0,.23-.01s.14-.01.23-.01c.87,0,1.6.31,2.21.93s.91,1.36.91,2.23c0,.35-.05.69-.16,1.01s-.28.63-.51.91c.22.28.38.59.5.91s.18.66.18,1.01c0,.87-.3,1.61-.91,2.23s-1.35.93-2.21.93c-.08,0-.16,0-.23-.01s-.14-.01-.23-.01c-.23.58-.61,1.05-1.14,1.41s-1.11.54-1.76.54ZM12,22c0-1.23.24-2.4.71-3.49.48-1.09,1.12-2.05,1.94-2.86s1.77-1.46,2.86-1.94,2.25-.71,3.49-.71c0,1.23-.24,2.4-.71,3.49s-1.12,2.05-1.94,2.86-1.77,1.46-2.86,1.94-2.25.71-3.49.71ZM14.45,19.55c.95-.35,1.78-.88,2.5-1.6.72-.72,1.25-1.55,1.6-2.5-.95.35-1.78.88-2.5,1.6-.72.72-1.25,1.55-1.6,2.5ZM12,22c0-1.23-.24-2.4-.71-3.49-.48-1.09-1.12-2.05-1.94-2.86s-1.77-1.46-2.86-1.94c-1.09-.48-2.25-.71-3.49-.71,0,1.23.24,2.4.71,3.49s1.12,2.05,1.94,2.86c.82.82,1.77,1.46,2.86,1.94s2.25.71,3.49.71ZM9.55,19.55c-.95-.35-1.78-.88-2.5-1.6-.72-.72-1.25-1.55-1.6-2.5.95.35,1.78.88,2.5,1.6.72.72,1.25,1.55,1.6,2.5ZM15.35,11.07c.32,0,.59-.11.81-.34s.34-.5.34-.81c0-.23-.06-.44-.19-.61s-.29-.31-.49-.41l-.88-.43c-.03.18-.08.36-.15.54s-.14.34-.23.49-.18.29-.3.43-.24.26-.38.38l.8.58c.08.07.18.12.29.15s.23.05.36.05ZM14.95,7.52l.88-.43c.2-.1.36-.24.48-.43s.18-.38.18-.6c0-.32-.11-.59-.33-.81s-.48-.34-.8-.34c-.13,0-.25.02-.35.05s-.2.08-.3.15l-.83.58c.13.12.26.24.39.38s.23.28.31.43.16.31.23.49.12.35.15.54ZM10.98,5.2c.17-.07.33-.12.5-.15s.34-.05.53-.05.36.02.53.05.33.08.5.15l.13-1.1c.03-.3-.07-.56-.31-.78-.24-.22-.52-.33-.84-.33s-.6.11-.84.33-.35.48-.31.78l.13,1.1ZM12,13c.32,0,.6-.11.84-.33.24-.22.35-.48.31-.78l-.13-1.1c-.17.07-.33.12-.5.15s-.34.05-.53.05-.36-.02-.53-.05-.33-.08-.5-.15l-.13,1.1c-.03.3.07.56.31.78s.52.33.84.33ZM9.05,7.52c.03-.18.08-.36.15-.54s.14-.34.23-.49.18-.29.3-.43.24-.26.38-.38l-.8-.58c-.08-.07-.18-.12-.29-.15s-.23-.05-.36-.05c-.32,0-.59.11-.81.34s-.34.5-.34.81c0,.22.06.42.19.6s.29.33.49.43l.88.43ZM8.65,11.05c.13,0,.25-.01.35-.04s.2-.08.3-.16l.83-.55c-.13-.12-.26-.24-.39-.38s-.23-.28-.31-.43-.16-.31-.23-.49-.12-.35-.15-.54l-.88.43c-.2.1-.36.24-.48.43s-.18.38-.18.6c.02.32.13.58.34.8s.47.33.79.33Z"/>
</svg>