<?xml version="1.0" encoding="UTF-8"?>
<svg id="Layer_1" xmlns="http://www.w3.org/2000/svg" version="1.1" viewBox="0 0 24 24">
  <!-- Generator: Adobe Illustrator 30.0.0, SVG Export Plug-In . SVG Version: 2.1.1 Build 123)  -->
  <defs>
    <style>
      .st0 {
        fill: #74b1ed;
      }
    </style>
  </defs>
  <path class="st0" d="M9,18h11v-2.68h-11v2.68ZM4,8.67h3v-2.68h-3v2.68ZM4,13.35h3v-2.68h-3v2.68ZM4,18h3v-2.68h-3v2.68ZM9,13.35h11v-2.68h-11v2.68ZM9,8.67h11v-2.68h-11v2.68ZM4,20c-.55,0-1.02-.2-1.41-.59s-.59-.86-.59-1.41V6c0-.55.2-1.02.59-1.41s.86-.59,1.41-.59h16c.55,0,1.02.2,1.41.59s.59.86.59,1.41v12c0,.55-.2,1.02-.59,1.41s-.86.59-1.41.59H4Z"/>
</svg>