<?xml version="1.0" encoding="UTF-8"?>
<svg id="Layer_1" xmlns="http://www.w3.org/2000/svg" version="1.1" viewBox="0 0 24 24">
  <!-- Generator: Adobe Illustrator 30.0.0, SVG Export Plug-In . SVG Version: 2.1.1 Build 123)  -->
  <defs>
    <style>
      .st0 {
        fill: #74b1ed;
      }
    </style>
  </defs>
  <path class="st0" d="M16,21c-.55,0-1.02-.2-1.41-.59-.39-.39-.59-.86-.59-1.41v-4c0-.55.2-1.02.59-1.41s.86-.59,1.41-.59h4c.55,0,1.02.2,1.41.59s.59.86.59,1.41v4c0,.55-.2,1.02-.59,1.41-.39.39-.86.59-1.41.59h-4ZM16,19h4v-4h-4v4ZM2,18v-2h9v2H2ZM16,11c-.55,0-1.02-.2-1.41-.59s-.59-.86-.59-1.41v-4c0-.55.2-1.02.59-1.41s.86-.59,1.41-.59h4c.55,0,1.02.2,1.41.59s.59.86.59,1.41v4c0,.55-.2,1.02-.59,1.41s-.86.59-1.41.59h-4ZM16,9h4v-4h-4v4ZM2,8v-2h9v2H2Z"/>
</svg>