<?xml version="1.0" encoding="UTF-8"?>
<svg id="Layer_1" xmlns="http://www.w3.org/2000/svg" version="1.1" viewBox="0 0 24 24">
  <!-- Generator: Adobe Illustrator 30.0.0, SVG Export Plug-In . SVG Version: 2.1.1 Build 123)  -->
  <defs>
    <style>
      .st0 {
        fill: #74b1ed;
      }
    </style>
  </defs>
  <path class="st0" d="M9.73,14l2.28-1.38,2.28,1.38-.6-2.6,2-1.73-2.63-.23-1.05-2.45-1.05,2.45-2.63.23,2,1.73-.6,2.6ZM5,21V5c0-.55.2-1.02.59-1.41s.86-.59,1.41-.59h10c.55,0,1.02.2,1.41.59s.59.86.59,1.41v16l-7-3-7,3ZM7,17.95l5-2.15,5,2.15V5H7v12.95ZM7,5h10H7Z"/>
</svg>