<?xml version="1.0" encoding="UTF-8"?>
<svg id="Layer_1" xmlns="http://www.w3.org/2000/svg" version="1.1" viewBox="0 0 24 24">
  <!-- Generator: Adobe Illustrator 30.0.0, SVG Export Plug-In . SVG Version: 2.1.1 Build 123)  -->
  <defs>
    <style>
      .st0 {
        fill: #74b1ed;
      }
    </style>
  </defs>
  <path class="st0" d="M6,10.95l-1,.55c-.23.13-.48.17-.75.1s-.47-.22-.6-.45l-2-3.5c-.13-.23-.17-.48-.1-.75.07-.27.22-.47.45-.6l5.75-3.3h1.75c.15,0,.27.05.36.14s.14.21.14.36v.5c0,.55.2,1.02.59,1.41s.86.59,1.41.59,1.02-.2,1.41-.59.59-.86.59-1.41v-.5c0-.15.05-.27.14-.36s.21-.14.36-.14h1.75l5.75,3.3c.23.13.38.33.45.6s.03.52-.1.75l-2,3.5c-.13.23-.33.38-.59.44s-.51.02-.76-.11l-1-.5v9.03c0,.28-.1.52-.29.71-.19.19-.43.29-.71.29H7c-.28,0-.52-.1-.71-.29-.19-.19-.29-.43-.29-.71v-9.05ZM8,7.6v11.4h8V7.6l3.1,1.7,1.05-1.75-4.3-2.5c-.25.85-.72,1.55-1.41,2.11s-1.5.84-2.44.84-1.75-.28-2.44-.84-1.16-1.26-1.41-2.11l-4.3,2.5,1.05,1.75,3.1-1.7Z"/>
</svg>