<?xml version="1.0" encoding="UTF-8"?>
<svg id="Layer_1" xmlns="http://www.w3.org/2000/svg" version="1.1" viewBox="0 0 24 24">
  <!-- Generator: Adobe Illustrator 30.0.0, SVG Export Plug-In . SVG Version: 2.1.1 Build 123)  -->
  <defs>
    <style>
      .st0 {
        fill: #74b1ed;
      }
    </style>
  </defs>
  <path class="st0" d="M11,15h2v-2h2v-2h-2v-2h-2v2h-2v2h2v2ZM4,19v-2h2v-7c0-1.38.42-2.61,1.25-3.69s1.92-1.78,3.25-2.11v-.7c0-.42.15-.77.44-1.06s.65-.44,1.06-.44.77.15,1.06.44c.29.29.44.65.44,1.06v.7c1.33.33,2.42,1.04,3.25,2.11s1.25,2.3,1.25,3.69v7h2v2H4ZM12,22c-.55,0-1.02-.2-1.41-.59s-.59-.86-.59-1.41h4c0,.55-.2,1.02-.59,1.41s-.86.59-1.41.59ZM8,17h8v-7c0-1.1-.39-2.04-1.18-2.83s-1.73-1.18-2.83-1.18-2.04.39-2.83,1.18-1.18,1.73-1.18,2.83v7Z"/>
</svg>