<?xml version="1.0" encoding="UTF-8"?>
<svg id="Layer_1" xmlns="http://www.w3.org/2000/svg" version="1.1" viewBox="0 0 24 24">
  <!-- Generator: Adobe Illustrator 30.0.0, SVG Export Plug-In . SVG Version: 2.1.1 Build 123)  -->
  <defs>
    <style>
      .st0 {
        fill: #74b1ed;
      }
    </style>
  </defs>
  <path class="st0" d="M4,22c-.55,0-1.02-.2-1.41-.59s-.59-.86-.59-1.41V8c0-.55.2-1.02.59-1.41s.86-.59,1.41-.59h4L12,2l4,4h4c.55,0,1.02.2,1.41.59s.59.86.59,1.41v12c0,.55-.2,1.02-.59,1.41s-.86.59-1.41.59H4ZM4,20h16V8H4v12ZM6,18h12l-3.75-5-3,4-2.25-3-3,4ZM17.5,13c.42,0,.77-.15,1.06-.44s.44-.65.44-1.06-.15-.77-.44-1.06-.65-.44-1.06-.44-.77.15-1.06.44-.44.65-.44,1.06.15.77.44,1.06.65.44,1.06.44ZM10.1,6h3.8l-1.9-1.9-1.9,1.9ZM4,20V8v12Z"/>
</svg>