<?xml version="1.0" encoding="UTF-8"?>
<svg id="Layer_1" xmlns="http://www.w3.org/2000/svg" version="1.1" viewBox="0 0 24 24">
  <!-- Generator: Adobe Illustrator 30.0.0, SVG Export Plug-In . SVG Version: 2.1.1 Build 123)  -->
  <defs>
    <style>
      .st0 {
        fill: #74b1ed;
      }
    </style>
  </defs>
  <path class="st0" d="M8,18h8v-2h-8v2ZM7,22c-.55,0-1.02-.2-1.41-.59s-.59-.86-.59-1.41v-8c0-1.42.37-2.68,1.11-3.8.74-1.12,1.7-1.95,2.89-2.5v-.7c0-.83.29-1.54.88-2.13s1.29-.88,2.13-.88,1.54.29,2.13.88.88,1.29.88,2.13v.7c1.18.55,2.15,1.38,2.89,2.5s1.11,2.38,1.11,3.8v8c0,.55-.2,1.02-.59,1.41s-.86.59-1.41.59H7ZM7,20h10v-8c0-1.38-.49-2.56-1.46-3.54s-2.15-1.46-3.54-1.46-2.56.49-3.54,1.46-1.46,2.15-1.46,3.54v8ZM11,5.1c.18-.03.35-.06.5-.08s.32-.03.5-.03.35,0,.5.03.32.04.5.08v-.1c0-.28-.1-.52-.29-.71-.19-.19-.43-.29-.71-.29s-.52.1-.71.29-.29.43-.29.71v.1ZM7,20h10H7ZM10.15,14.5l1.85-1.4,1.85,1.4-.7-2.28,1.85-1.33h-2.28l-.73-2.4-.73,2.4h-2.28l1.85,1.33-.7,2.28Z"/>
</svg>