<?xml version="1.0" encoding="UTF-8"?>
<svg id="Layer_1" data-name="Layer 1" xmlns="http://www.w3.org/2000/svg" viewBox="0 0 16 14">
  <defs>
    <style>
      .cls-1 {
        fill: #6300a6;
      }
    </style>
  </defs>
  <path class="cls-1" d="M2.5,14v-1.5h11v1.5H2.5ZM2.5,11.5l-1.04-6.02s-.06.02-.09.02h-.11c-.35,0-.64-.12-.89-.36s-.36-.54-.36-.89.12-.64.36-.89.54-.36.89-.36.64.12.89.36.36.54.36.89c0,.1-.01.19-.03.27s-.05.17-.09.25l2.63,1.23,2.33-3.69c-.18-.11-.32-.26-.43-.45-.1-.19-.16-.39-.16-.61,0-.35.12-.64.36-.89s.54-.36.89-.36.64.12.89.36c.24.24.36.54.36.89,0,.22-.05.43-.16.61s-.25.34-.43.45l2.33,3.69,2.63-1.23c-.04-.08-.07-.17-.09-.25s-.03-.17-.03-.27c0-.35.12-.64.36-.89s.54-.36.89-.36.64.12.89.36.36.54.36.89-.12.64-.36.89-.54.36-.89.36h-.11s-.07,0-.09-.02l-1.04,6.02H2.5ZM3.75,10h8.5l.54-3.19-2.35,1.1-2.44-3.85-2.44,3.85-2.35-1.1.54,3.19Z"/>
</svg>