<?xml version="1.0" encoding="UTF-8"?>
<svg id="Layer_1" xmlns="http://www.w3.org/2000/svg" version="1.1" viewBox="0 0 24 24">
  <!-- Generator: Adobe Illustrator 30.0.0, SVG Export Plug-In . SVG Version: 2.1.1 Build 123)  -->
  <defs>
    <style>
      .st0 {
        fill: #ff0064;
      }
    </style>
  </defs>
  <path class="st0" d="M3,20c-.28,0-.52-.1-.71-.29s-.29-.43-.29-.71c0-.17.03-.32.1-.46s.17-.25.3-.34l8.6-6.45v-1.75c0-.28.1-.52.3-.71s.44-.29.73-.29c.42,0,.77-.15,1.05-.45s.43-.66.43-1.08-.15-.77-.44-1.05-.65-.43-1.06-.43-.77.15-1.06.44-.44.65-.44,1.06h-2c0-.97.34-1.79,1.03-2.48s1.51-1.03,2.48-1.03,1.79.34,2.48,1.01,1.03,1.5,1.03,2.46c0,.78-.23,1.48-.69,2.1s-1.06,1.04-1.81,1.28v.9l8.6,6.45c.13.08.23.2.3.34s.1.3.1.46c0,.28-.1.52-.29.71s-.43.29-.71.29H3v.02ZM6,18h12l-6-4.5-6,4.5Z"/>
</svg>