<?xml version="1.0" encoding="UTF-8"?>
<svg id="Layer_1" data-name="Layer 1" xmlns="http://www.w3.org/2000/svg" viewBox="0 0 24 24">
  <defs>
    <style>
      .cls-1 {
        fill: #ea33f7;
      }
    </style>
  </defs>
  <path class="cls-1" d="M5.53,21c-.45,0-.85-.14-1.2-.41s-.59-.63-.73-1.06L1.05,10.27c-.08-.32-.03-.61.16-.88s.45-.4.79-.4h4.75l4.4-6.55c.08-.13.2-.24.35-.33s.31-.13.48-.13.33.04.48.13.27.19.35.33l4.4,6.55h4.8c.33,0,.6.13.79.4s.25.56.16.88l-2.55,9.25c-.13.43-.38.79-.73,1.06s-.75.41-1.2.41H5.53ZM5.5,19h13l2.2-8H3.3l2.2,8ZM12,17c.55,0,1.02-.2,1.41-.59s.59-.86.59-1.41-.2-1.02-.59-1.41-.86-.59-1.41-.59-1.02.2-1.41.59-.59.86-.59,1.41.2,1.02.59,1.41.86.59,1.41.59ZM9.18,9h5.63l-2.83-4.2-2.8,4.2Z"/>
</svg>